Patient4_TMGait_0pt5_01_right_34_EMG.mot
version=1
nRows=26
nColumns=33
inDegrees=no
endheader
time	1LAddLong	2LGlutMax	3LGlutMed	4LIliopsoas	5LSemiMemb	6LBicFemLong	7LRecFem	8LVastMed	9LVastLat	10LGasMed	11LTibAnt	12lTibPost	13LPeroneusLong	14LSol	15LExtDigLong	16LFlexDigLong	17RAddLong	18RGlutMax	19RGlutMed	20RIliopsoas	21RSemiMemb	22RBicFemLong	23RRecFem	24RVastMed	25RVastLat	26RGasMed	27RTibAnt	28RTibPost	29RPeroneusLong	30RSol	31RExtDigLong	32RFlexDigLong
45.082	0.035553	-0.40604	-0.024109	0.035248	0.00946	-0.014038	0.26337	0.001831	0.003052	0.019531	0.052948	0.005035	-0.040131	0.11429	-1.0544	-0.13916	0.066071	-0.091095	-0.34698	-0.089722	-0.020447	-0.15274	0.34958	-0.22568	-0.029144	0.016632	0.12116	0.068665	0.33585	-0.035248	-0.004425	0.011902
45.083	-0.028687	-0.39169	-0.024414	0.039673	0.004425	-0.003204	0.21698	0.001984	0.011444	0.025482	-0.065002	-0.003357	-0.036163	0.11063	-0.96741	-0.13809	0.063629	0.005188	-0.20462	-0.11169	-0.039978	-0.17761	0.39658	-0.31693	-0.04776	0.046692	0.068665	-0.020294	0.18372	-0.084686	-0.002441	0.02243
45.084	0.010223	-0.32547	-0.023956	0.023041	0.007019	0	0.11185	0.007172	-0.008392	0.0177	-0.224	0.008698	0.005341	0.079346	-0.58456	-0.13504	0.052032	0.11643	-0.19989	-0.10696	-0.18997	-0.1474	0.15289	-0.19516	-0.046234	0.083771	0.045013	-0.034485	-0.91934	0.064087	-0.005951	0.021362
45.085	0.015869	-0.28976	-0.02182	0.002289	0.003204	-0.006561	0.14236	0.009003	-0.012054	0.024567	-0.1799	0.009308	0.012512	-0.00824	-0.21027	-0.16174	0.031281	0.2095	-0.11536	-0.063782	-0.28198	-0.14114	-0.29862	-0.045013	0.016022	0.070038	0.021057	-0.018616	-0.11581	0.14877	0	0.013123
45.086	0.011292	-0.21622	-0.01709	-0.001526	0.006866	-0.001678	0.15457	0.000916	-0.007935	0.02533	-0.11414	0.006256	-0.010834	-0.052795	-0.056763	-0.12695	0.023346	0.30395	0.075684	0.072327	-0.41718	0.062256	-0.52811	0.12436	-0.012207	0.057678	0.015259	0.062256	0.55954	0.1506	-0.009155	0.00351
45.087	0.015869	-0.12909	-0.021973	0.011292	0.003204	-0.007324	0.12482	-0.004578	0.005188	0.008545	-0.19241	0.003967	0.042725	-0.112	-0.15488	-0.12741	0.008698	0.50552	0.61386	0.11185	-0.20584	0.35233	-0.44983	0.21027	0.008545	0.036163	0.088043	0.01297	0.067444	0.11231	-0.005188	-0.000916
45.088	0.012512	-0.061493	0.011749	-0.000916	0.007629	-0.00061	0.014496	-0.005341	0.00946	-0.008087	-0.07782	-0.00473	0.032043	-0.032959	-0.20645	-0.10284	-0.007782	0.59723	0.96695	0.1152	-0.035248	0.22339	-0.14465	0.27954	0.043488	-0.001526	0.16754	0.006561	-1.049	-0.11231	-0.004578	0.003052
45.089	0.011749	-0.028381	0.029449	0.000305	0.001831	-0.029144	-0.028839	-0.007172	0.007935	0.010986	-0.067902	-0.001526	-0.007019	0.004272	0.085754	-0.11459	0.014496	0.53223	0.73715	0.11047	0.14618	-0.05722	0.014191	0.2327	-0.006256	0.014191	0.10895	-0.007324	-1.4623	-0.43243	-0.003357	0.011902
45.09	0.011902	-0.005951	-0.00351	0.004425	0.007782	0.001373	-0.12802	0.001373	0.005798	0.035858	-0.049133	0.005188	-0.086975	-0.015411	0.30594	-0.099182	-0.00351	0.43427	-0.069275	0.080719	0.13565	-0.12741	-0.001984	0.083313	-0.008087	0.020142	0.054932	-0.003662	0.97855	-0.5928	-0.001373	0.011749
45.091	0.008698	0.002899	-0.000763	0.023346	0.00824	-0.017548	-0.1973	-0.008392	0.010223	0.02655	-0.024872	0.010071	-0.054169	-0.024872	0.48187	-0.099487	-0.03006	0.40771	0.27618	-0.010223	-0.022583	-0.21912	-0.054016	0.11566	0.021362	0.013885	0.30121	0.006409	0.40436	-0.50659	-0.005646	0.004272
45.092	0.015106	-0.006409	-0.014191	-0.00412	0.009308	-0.039215	-0.29266	-0.01297	0.023499	0.013123	-0.098419	0.002747	-0.003662	-0.029907	0.27161	-0.092316	0.002136	0.28549	0.30716	0.005341	-0.004883	-0.18127	-0.00473	0.10361	0.031891	0.014191	0.34851	0.014191	-0.34409	-0.1947	-0.005493	0.003204
45.093	0.014343	0.033264	-0.028534	-0.002594	0.006866	-0.06073	-0.33188	-0.007172	0.007324	0.015869	-0.065613	0.001526	-0.017853	-0.03479	0.19684	-0.079803	-0.002441	0.24551	-0.18021	0.051575	0.168	-0.016632	0.040436	0.047302	0.043182	0.016632	0.088654	0.005341	-0.4631	-0.093079	-0.005341	0.005188
45.094	0.014954	0.05661	-0.024109	-0.00061	0.002289	-0.054321	-0.36041	-0.008392	-0.002441	0.026398	0.040283	0.012054	-0.047302	-0.067139	0.10712	-0.076294	0.02121	0.15091	-0.95703	0.040436	0.27863	0.00885	0.055084	-0.023193	0.003357	0.008698	0.014343	-0.007477	-0.36835	0.031433	0.005798	0.003357
45.095	0.015411	0.017548	-0.000763	-0.004883	0.002136	-0.041351	-0.23605	-0.014801	-0.016022	0.013885	0.15595	-0.00351	-0.037537	-0.023956	-0.052185	-0.081024	0.027008	-0.047302	-0.62759	-0.10132	-0.009766	0.29511	0.068817	0.001831	0.003815	0.004578	-0.15625	-0.009003	0.026398	0.18326	-0.003357	0.001373
45.096	0.009918	0.00412	-0.010986	0.008087	0.001221	-0.063019	-0.15335	-0.016174	-0.008392	-0.008392	0.073853	-0.000458	0.013123	0.035095	-0.10407	-0.076141	-0.000153	-0.22995	0.10574	-0.14923	-0.35019	0.48874	0.024719	0.016327	0.024719	0.005493	-0.28778	-0.007477	0.87814	0.24597	-0.005798	-0.003357
45.097	0.016022	0.009308	-0.022125	0.009766	0.004425	-0.066223	-0.057526	-0.007782	-0.003815	-0.008545	-0.040588	0.003662	0.003357	-0.059662	0.002441	-0.075989	-0.022125	-0.3244	-0.32928	-0.13001	-0.2504	0.2887	0.057678	0.029297	0.005493	0.02121	-0.23102	-0.002747	0.84	0.22781	-0.009766	0.006561
45.098	0.015869	-0.002899	-0.018463	0.016022	0.005341	-0.094757	0.011902	-0.002899	-0.014648	0.014343	0.07309	0.004272	-0.023651	-0.13245	0.34134	-0.06546	0.006561	-0.23987	-0.75424	-0.06485	0.16449	0.13229	0.041809	0.066681	0.001221	0.064697	-0.14496	0.008545	-0.24338	0.042267	-0.005951	0.000305
45.099	0.017242	-0.059357	-0.045624	0.01236	-0.011597	-0.083466	0.025482	-0.008392	-0.018311	-0.011749	0.038605	0.004425	0.06958	-0.095062	0.20966	-0.053101	0.009766	-0.24017	-0.49469	0.005188	0.27176	0.099945	0.08728	0.01297	-0.036163	0.085144	-0.11978	0.006104	0.2626	-0.053406	-0.005798	0.00946
45.1	0.009918	-0.031128	-0.058594	-0.004883	0.010681	-0.094147	-0.016022	-0.00946	-0.037537	-0.020752	0.096588	0.004883	0.030365	-0.045471	0.37018	-0.048676	0.027924	-0.15472	-0.25116	0.027771	0.18921	0.21805	0.15579	0.054626	-0.050964	0.075684	-0.037384	-0.001221	0.18707	-0.3302	-0.003357	0.019531
45.101	0.011139	-0.045166	-0.058136	0.023346	0.005188	-0.093384	-0.043182	-0.005951	-0.033875	0.006104	0.03891	0.010834	-0.13977	0.055542	0.1799	-0.045319	0.028381	-0.13016	-0.27985	-0.02182	0.12314	0.14908	0.21011	0.072784	-0.040894	0.04364	0.037384	-0.085602	-0.93948	-0.48569	-0.001526	0.014648
45.102	0.034637	-0.062561	-0.076141	0.048218	0.012665	-0.10773	-0.027924	-0.010376	-0.030975	-0.001221	0.07019	0.00824	-0.15564	0.17258	0.63324	-0.047607	0.014801	-0.17883	-0.15869	-0.072327	0.10071	0.033417	0.28351	0.077362	-0.078888	-0.044556	0.024414	-0.21912	-1.3174	0.011444	-0.006561	0.016937
45.103	0.020752	-0.061493	-0.072021	0.038147	0.012512	-0.11597	-0.050354	-0.011902	-0.030212	-0.007172	-0.10696	0.004578	-0.03418	0.20599	-0.48645	-0.050964	-0.030518	-0.20889	-0.077057	-0.05661	0.082092	-0.12924	0.23178	0.13123	-0.062714	-0.16007	0.029602	-0.060577	-0.81772	0.24567	-0.007019	0.006714
45.104	0.022583	-0.054321	-0.060883	0.027924	0.012665	-0.078278	-0.028076	-0.00412	-0.03479	-0.007935	-0.21454	0.006104	0.052185	0.11368	-0.62744	-0.033417	-0.039825	-0.1004	-0.11322	0.019531	0.089111	-0.20248	0.24246	0.18646	0.013123	-0.13245	0.066376	0.1973	-0.29221	0.001526	-0.005341	0.014191
45.105	0.020752	-0.065155	-0.012207	-0.002289	0.011902	-0.052948	0.018158	-0.010071	-0.060577	0.019379	-0.16754	0.007935	0.031738	-0.018158	-0.71686	-0.046692	-0.011597	0.0383	0.007172	0.12528	0.065613	-0.28091	0.30075	0.13275	0.048218	-0.12878	0.076141	-0.13809	0.20798	-0.29862	-0.006714	0.007172
45.106	0.014191	-0.064697	-0.019684	0.004425	0.008698	-0.007782	0.10956	-0.001373	-0.078735	-0.013123	-0.1712	0.007477	0.068665	-0.04425	-0.21255	-0.033722	0.00946	0.15976	0.041351	0.28549	-0.009003	-0.31937	0.084229	-0.022278	0.072174	-0.1033	0.012512	-0.13626	0.42191	-0.059662	-0.006866	0.006866
45.107	0.013123	-0.070801	-0.025635	0	0.014191	0.015564	0.13412	0.004883	-0.11108	-0.014191	-0.14618	0.013733	0.056915	-0.019379	0.06485	-0.021667	0.005035	0.21164	0.18662	0.25971	-0.038605	-0.19272	0.14175	0.034027	0.052338	-0.00885	-0.019531	0.19989	0.49255	0.72937	-0.006714	0.009613
